{"title":"Focus 2015 HC HDRIP x264 AC3 TiTAN","uid":11761314,"size":1074525354,"categoryP":"video","categoryS":"movies","magnet":"?xt=urn:btih:6f60a3b41f2c091b0506add61fc9bf8f806dbca3&amp;dn=Focus+2015+HC+HDRIP+x264+AC3+TiTAN&amp;tr=udp%3A%2F%2Ftracker.openbittorrent.com%3A80&amp;tr=udp%3A%2F%2Fopen.demonii.com%3A1337&amp;tr=udp%3A%2F%2Ftracker.coppersurfer.tk%3A6969&amp;tr=udp%3A%2F%2Fexodus.desync.com%3A6969","seeders":1,"leechers":0,"uploader":"TvTeam","files":3,"time":1426551815,"description":" &lt;a href=&quot;https://www.torrenting.com&quot; rel=&quot;nofollow&quot; target=&quot;_NEW&quot;&gt;https://www.torrenting.com&lt;/a&gt;\n\nSign up is OPEN - for the time being. Come and have fun.\n\n.[img]http://i.imgur.com/Yk579Hq.jpg[/img]\n &lt;a href=&quot;\nhttp://www.imdb.com/title/tt2381941/&quot; rel=&quot;nofollow&quot; target=&quot;_NEW&quot;&gt;\nhttp://www.imdb.com/title/tt2381941/&lt;/a&gt;\n\nSource: Mp4.. THX\n\nSource was fullscreen res, so decided to crop a line of subs off.. so there are far less subs.. Enjoy\n\nGeneral\n\nFormat                                   : Matroska\nFormat version                           : Version 2\nFile size                                : 1.00 GiB\nDuration                                 : 1h 44mn\nOverall bit rate mode                    : Variable\nOverall bit rate                         : 1 369 Kbps\nEncoded date                             : UTC 2015-03-14 08:02:52\n\nVideo\nID                                       : 1\nFormat                                   : AVC\nFormat/Info                              : Advanced Video Codec\nFormat profile                           : &lt;a class=&quot;__cf_email__&quot; href=&quot;/cdn-cgi/l/email-protection&quot; data-cfemail=&quot;723a1b151a323e465c43&quot;&gt;[email&amp;#160;protected]&lt;/a&gt;&lt;script cf-hash='f9e31' type=&quot;text/javascript&quot;&gt;\n/* &lt;![CDATA[ */!function(){try{var t=&quot;currentScript&quot;in document?document.currentScript:function(){for(var t=document.getElementsByTagName(&quot;script&quot;),e=t.length;e--;)if(t[e].getAttribute(&quot;cf-hash&quot;))return t[e]}();if(t&amp;&amp;t.previousSibling){var e,r,n,i,c=t.previousSibling,a=c.getAttribute(&quot;data-cfemail&quot;);if(a){for(e=&quot;&quot;,r=parseInt(a.substr(0,2),16),n=2;a.length-n;n+=2)i=parseInt(a.substr(n,2),16)^r,e+=String.fromCharCode(i);e=document.createTextNode(e),c.parentNode.replaceChild(e,c)}}}catch(u){}}();/* ]]&gt; */&lt;/script&gt;\nFormat settings, CABAC                   : Yes\nFormat settings, ReFrames                : 3 frames\nCodec ID                                 : V_MPEG4/ISO/AVC\nDuration                                 : 1h 44mn\nBit rate mode                            : Variable\nBit rate                                 : 1 150 Kbps\nMaximum bit rate                         : 40.0 Mbps\nWidth                                    : 720 pixels\nHeight                                   : 336 pixels\nDisplay aspect ratio                     : 2.143\nFrame rate mode                          : Constant\nFrame rate                               : 30.000 fps\nColor space                              : YUV\nChroma subsampling                       : 4:2:0\nBit depth                                : 8 bits\nScan type                                : Progressive\nBits/(Pixel*Frame)                       : 0.158\nStream size                              : 861 MiB (84%)\nDefault                                  : Yes\nForced                                   : No\nColor primaries                          : BT.709\nTransfer characteristics                 : BT.709\nMatrix coefficients                      : BT.709\n\nAudio\nID                                       : 2\nFormat                                   : AC-3\nFormat/Info                              : Audio Coding 3\nMode extension                           : CM (complete main)\nFormat settings, Endianness              : Big\nCodec ID                                 : A_AC3\nDuration                                 : 1h 44mn\nBit rate mode                            : Constant\nBit rate                                 : 192 Kbps\nChannel(s)                               : 2 channels\nChannel positions                        : Front: L R\nSampling rate                            : 48.0 KHz\nBit depth                                : 16 bits\nCompression mode                         : Lossy\nStream size                              : 144 MiB (14%)\nDefault                                  : Yes\nForced                                   : No\n\n[img]http://i.imgur.com/LAPpjHa.png[/img]\n[img]http://i.imgur.com/FRAmtjR.png[/img]\n[img]http://i.imgur.com/4zH1hqV.png[/img]\n[img]http://i.imgur.com/ppqtnxn.png[/img]\n[img]http://i.imgur.com/ppqtnxn.png[/img]\n[img]http://i.imgur.com/pr2pVRI.png[/img]\n[img]http://i.imgur.com/NZKMy4d.png[/img]\n[img]http://i.imgur.com/P4CvxIG.png[/img]","torrent":{"xt":"urn:btih:6f60a3b41f2c091b0506add61fc9bf8f806dbca3","amp;dn":"Focus+2015+HC+HDRIP+x264+AC3+TiTAN","amp;tr":["udp%3A%2F%2Ftracker.openbittorrent.com%3A80","udp%3A%2F%2Fopen.demonii.com%3A1337","udp%3A%2F%2Ftracker.coppersurfer.tk%3A6969","udp%3A%2F%2Fexodus.desync.com%3A6969"],"infoHash":"6f60a3b41f2c091b0506add61fc9bf8f806dbca3","infoHashBuffer":{"type":"Buffer","data":[111,96,163,180,31,44,9,27,5,6,173,214,31,201,191,143,128,109,188,163]},"announce":[],"urlList":[]}}